<?xml version="1.0" standalone="no"?>
<!DOCTYPE svg PUBLIC "-//W3C//DTD SVG 20010904//EN"
 "http://www.w3.org/TR/2001/REC-SVG-20010904/DTD/svg10.dtd">
<svg version="1.0" xmlns="http://www.w3.org/2000/svg"
 width="100.000000pt" height="100.000000pt" viewBox="0 0 100.000000 100.000000"
 preserveAspectRatio="xMidYMid meet">
<metadata>
Created by potrace 1.16, written by Peter Selinger 2001-2019
</metadata>
<g transform="translate(0.000000,100.000000) scale(0.100000,-0.100000)"
fill="#000000" stroke="none">
<path d="M696 978 c-9 -12 -16 -28 -16 -35 0 -12 -43 -20 -135 -26 -27 -2 -9
-4 42 -5 l91 -2 21 36 c26 43 53 43 61 -1 5 -27 9 -30 50 -33 25 -2 52 -10 60
-18 12 -12 9 -12 -20 -4 -57 16 -69 13 -78 -22 -15 -60 -73 -64 -80 -4 l-3 26
-178 0 -177 0 -9 -32 c-19 -62 -74 -63 -85 -2 -4 24 -10 30 -39 32 -47 5 -77
-4 -101 -30 -27 -29 -26 -8 2 28 l22 29 -22 -19 c-39 -34 -42 -67 -39 -402 3
-364 2 -360 83 -395 41 -19 65 -20 392 -17 378 3 379 3 403 61 9 21 11 116 6
362 -5 275 -8 338 -21 363 -20 39 -51 61 -99 69 -27 4 -41 13 -50 32 -17 35
-59 40 -81 9z m211 -548 c-4 -230 -8 -275 -21 -288 -14 -14 -60 -16 -358 -17
-366 -2 -395 2 -419 46 -8 15 -13 76 -14 164 -2 77 -6 190 -10 250 l-7 110
417 3 417 3 -5 -271z"/>
</g>
</svg>
